<?xml version="1.0" encoding="utf-8"?>
<!-- Generator: Adobe Illustrator 24.0.1, SVG Export Plug-In . SVG Version: 6.00 Build 0)  -->
<svg version="1.1" id="_x31__copy" xmlns="http://www.w3.org/2000/svg" xmlns:xlink="http://www.w3.org/1999/xlink" x="0px" y="0px"
	 viewBox="0 0 1292.47 389.36" style="enable-background:new 0 0 1292.47 389.36;" xml:space="preserve">
<style type="text/css">
	.st0{fill:#4F4F51;}
	.st1{fill:#62BB46;}
	.st2{fill:#FFFFFF;}
</style>
<polygon class="st0" points="495.7,139.94 461.75,139.94 467.86,130.05 493.69,130.05 "/>
<path class="st1" d="M279.72,133.78c-0.96-6.49-3.29-12.17-7.02-17.04c-3.72-4.87-8.88-8.68-15.46-11.45
	c-6.59-2.76-14.75-4.15-24.48-4.15h-64.71c-9.54,0-18.28,1.38-26.2,4.15c-7.92,2.77-14.94,6.59-21.04,11.45
	c-6.11,4.86-11.17,10.55-15.17,17.04c-4.01,6.49-6.97,13.46-8.88,20.9l-23.19,93.91c-1.91,7.44-2.43,14.42-1.57,20.9
	c0.86,6.49,3.15,12.17,6.87,17.04c3.72,4.86,8.88,8.69,15.46,11.45c5.74,2.41,12.67,3.71,20.65,4.02l45.51,0.13h22.73
	c9.74,0,18.56-1.38,26.48-4.15c7.92-2.76,14.94-6.59,21.05-11.45c6.11-4.87,11.21-10.55,15.32-17.04c4.1-6.49,7.11-13.46,9.02-20.9
	l23.19-93.91C280.19,147.23,280.67,140.27,279.72,133.78z"/>
<g>
	<path class="st0" d="M338.83,149.72h52.63c4.6,0,8.48,0.61,11.64,1.83c3.16,1.22,5.62,2.93,7.37,5.14c1.76,2.21,2.86,4.8,3.32,7.78
		c0.45,2.98,0.22,6.22-0.68,9.74l-1.49,5.82c-0.99,3.79-2.8,6.86-5.41,9.2c-2.62,2.35-5.77,4.19-9.47,5.55
		c3.25,1.54,5.77,3.65,7.58,6.36c1.8,2.71,2.3,6.04,1.49,10.01l-2.17,8.66c-0.9,3.52-2.3,6.79-4.19,9.81
		c-1.89,3.02-4.29,5.62-7.17,7.78c-2.89,2.17-6.2,3.88-9.94,5.14c-3.74,1.26-7.92,1.89-12.52,1.89h-54.26L338.83,149.72z
		 M344.79,225.08h24.22c3.52,0,6.22-0.81,8.12-2.44c1.89-1.62,3.2-3.97,3.92-7.04l0.81-3.25c1.44-5.23-1.26-7.85-8.12-7.85h-23.95
		L344.79,225.08z M388.76,177.73c0.81-3.07,0.63-5.3-0.54-6.7c-1.17-1.4-3.52-2.1-7.04-2.1h-22.6l-4.6,18.94h22.46
		c3.43,0,6.07-0.61,7.92-1.83c1.85-1.22,3.09-3.09,3.72-5.62L388.76,177.73z"/>
	<path class="st0" d="M476.57,222.92h-33.83l-11.5,21.51h-26.79c9.02-15.97,17.18-30.4,24.49-43.3c3.07-5.5,6.13-10.94,9.2-16.3
		c3.07-5.37,5.82-10.26,8.25-14.68c2.44-4.42,4.49-8.12,6.16-11.09c1.67-2.98,2.73-4.82,3.18-5.55c0.54-0.9,0.99-1.6,1.35-2.1
		c0.36-0.5,0.76-0.88,1.22-1.15c0.45-0.27,1.04-0.43,1.76-0.47c0.72-0.04,1.71-0.07,2.98-0.07h29.23c2.43,0,3.94,0.18,4.53,0.54
		c0.59,0.36,0.92,1.44,1.01,3.25c0,0.72,0.11,2.57,0.34,5.55c0.22,2.98,0.47,6.68,0.74,11.09c0.27,4.42,0.58,9.31,0.95,14.68
		c0.36,5.37,0.77,10.8,1.22,16.3c0.9,12.9,1.94,27.33,3.11,43.3h-26.65L476.57,222.92z M453.17,202.49h23.14l-1.35-33.83h-3.92
		L453.17,202.49z"/>
	<path class="st0" d="M597.8,170.02h-29.63l-18.27,74.42h-24.49l18.27-74.42h-29.77l5.01-20.3h83.89L597.8,170.02z"/>
	<path class="st0" d="M614.85,244.43h-24.49l23.27-94.71h24.49L614.85,244.43z"/>
	<path class="st0" d="M728.37,150.94c0.09-0.18,0.22-0.36,0.41-0.54c0.45-0.45,0.95-0.68,1.49-0.68h32.34l-23.27,94.71h-24.49
		l13.26-54.12h-1.35l-29.5,52.36c-0.18,0.36-0.41,0.68-0.68,0.95c-0.54,0.54-1.13,0.81-1.76,0.81h-19.62
		c-0.45,0-0.77-0.09-0.95-0.27c-0.18-0.18-0.36-0.36-0.54-0.54c-0.18-0.27-0.27-0.59-0.27-0.95l-3.79-52.36h-1.35l-13.26,54.12
		h-24.49l23.27-94.71h30.98c0.54,0,0.95,0.23,1.22,0.68c0.09,0.18,0.13,0.36,0.13,0.54l7.04,57.64h1.08L728.37,150.94z"/>
	<path class="st0" d="M778.02,149.72h71.85L845,169.75h-47.36l-4.19,16.51h40.18l-5.01,20.57h-40.19l-3.92,16.37h47.22l-5.28,21.24
		h-71.71L778.02,149.72z"/>
	<path class="st0" d="M928.07,244.43h-20.02c-2.08,0-3.52-0.25-4.33-0.74c-0.81-0.5-1.58-1.56-2.3-3.18
		c-0.27-0.63-0.97-2.25-2.1-4.87c-1.13-2.62-2.46-5.73-3.99-9.34c-1.53-3.61-3.16-7.46-4.87-11.57c-1.71-4.1-3.32-7.94-4.8-11.5
		c-1.49-3.56-2.77-6.61-3.86-9.13c-1.08-2.52-1.76-4.06-2.03-4.6h-0.81l-13.53,54.93h-24.49l23.27-94.71h19.62
		c1.35,0,2.37,0.05,3.04,0.14c0.68,0.09,1.19,0.23,1.56,0.41c0.36,0.18,0.63,0.43,0.81,0.74c0.18,0.32,0.36,0.74,0.54,1.29
		c0.09,0.27,0.65,1.58,1.69,3.92c1.04,2.35,2.32,5.28,3.86,8.79c1.53,3.52,3.2,7.37,5.01,11.57c1.8,4.19,3.54,8.21,5.21,12.04
		c1.67,3.83,3.16,7.24,4.46,10.22c1.31,2.98,2.19,5.05,2.64,6.22h0.68l13.53-55.34h24.49L928.07,244.43z"/>
	<path class="st0" d="M1040.64,170.02h-29.63l-18.27,74.42h-24.49l18.27-74.42h-29.77l5.01-20.3h83.89L1040.64,170.02z"/>
	<path class="st0" d="M1143.47,149.72h71.85l-5.01,20.57h-47.36l-4.6,18.4h39.24l-5.01,20.57h-39.24l-8.66,35.18h-24.49
		L1143.47,149.72z"/>
</g>
<g>
	<path class="st1" d="M313.88,266.39l-1.58,7.88h11.48l-0.38,1.99h-11.48l-1.64,8.22h13.32l-0.41,2.02h-15.62l4.43-22.14h15.18
		l-0.41,2.02H313.88z"/>
	<path class="st1" d="M356.1,264.36l-4.43,22.14h-1.9l-10.59-18.34l-3.67,18.34h-2.31l4.43-22.14h1.9l10.6,18.34l3.67-18.34H356.1z"
		/>
	<path class="st1" d="M371.72,266.39h-7.81l0.41-2.02h17.93l-0.44,2.02h-7.78l-4.02,20.12h-2.31L371.72,266.39z"/>
	<path class="st1" d="M404.57,276.18c-1.19,1.44-2.86,2.42-5.01,2.93l4.17,7.4h-2.53l-3.99-7.05c-0.23,0.02-0.61,0.03-1.14,0.03
		h-6.29l-1.39,7.02h-2.34l4.43-22.14h7.97c2.51,0,4.45,0.55,5.84,1.65c1.38,1.1,2.07,2.64,2.07,4.62
		C406.35,272.88,405.76,274.73,404.57,276.18z M401.97,275.78c1.36-1.12,2.04-2.76,2.04-4.93c0-1.46-0.5-2.56-1.49-3.32
		s-2.4-1.14-4.24-1.14h-5.88l-2.25,11.07h5.98C398.67,277.46,400.61,276.9,401.97,275.78z"/>
	<path class="st1" d="M419.73,266.39l-1.58,7.88h11.48l-0.38,1.99h-11.48l-1.64,8.22h13.32l-0.41,2.02h-15.62l4.43-22.14h15.18
		l-0.41,2.02H419.73z"/>
	<path class="st1" d="M457.24,266.01c1.39,1.1,2.09,2.64,2.09,4.62c0,2.83-0.91,5.01-2.74,6.56s-4.34,2.33-7.54,2.33h-6.26
		l-1.42,6.99h-2.31l4.43-22.14h7.94C453.91,264.36,455.85,264.91,457.24,266.01z M454.93,275.78c1.37-1.12,2.06-2.76,2.06-4.93
		c0-1.46-0.5-2.56-1.49-3.32s-2.42-1.14-4.27-1.14h-5.82l-2.25,11.07h5.91C451.61,277.46,453.56,276.9,454.93,275.78z"/>
	<path class="st1" d="M484.46,276.18c-1.19,1.44-2.86,2.42-5.01,2.93l4.17,7.4h-2.53l-3.99-7.05c-0.23,0.02-0.61,0.03-1.14,0.03
		h-6.29l-1.39,7.02h-2.34l4.43-22.14h7.97c2.51,0,4.45,0.55,5.84,1.65c1.38,1.1,2.07,2.64,2.07,4.62
		C486.24,272.88,485.65,274.73,484.46,276.18z M481.86,275.78c1.36-1.12,2.04-2.76,2.04-4.93c0-1.46-0.5-2.56-1.49-3.32
		s-2.4-1.14-4.24-1.14h-5.88l-2.25,11.07h5.98C478.56,277.46,480.5,276.9,481.86,275.78z"/>
	<path class="st1" d="M499.62,266.39l-1.58,7.88h11.48l-0.38,1.99h-11.48l-1.64,8.22h13.32l-0.41,2.02H493.3l4.43-22.14h15.18
		l-0.41,2.02H499.62z"/>
	<path class="st1" d="M541.84,264.36l-4.43,22.14h-1.9l-10.59-18.34l-3.67,18.34h-2.31l4.43-22.14h1.9l10.6,18.34l3.67-18.34H541.84
		z"/>
	<path class="st1" d="M555.47,266.39l-1.58,7.88h11.48l-0.38,1.99h-11.48l-1.64,8.22h13.32l-0.41,2.02h-15.62l4.43-22.14h15.18
		l-0.41,2.02H555.47z"/>
	<path class="st1" d="M578.36,284.79c-1.4-1.26-2.1-3.03-2.1-5.28c0-0.86,0.08-1.69,0.25-2.47l2.53-12.68h2.31l-2.53,12.62
		c-0.17,0.88-0.25,1.63-0.25,2.25c0,1.77,0.51,3.11,1.52,4.02c1.01,0.91,2.47,1.36,4.37,1.36c2.17,0,3.91-0.62,5.2-1.85
		c1.3-1.23,2.21-3.16,2.74-5.77l2.53-12.62h2.28l-2.53,12.78c-1.29,6.37-4.75,9.55-10.41,9.55
		C581.73,286.69,579.76,286.06,578.36,284.79z"/>
	<path class="st1" d="M622.86,276.18c-1.19,1.44-2.86,2.42-5.01,2.93l4.17,7.4h-2.53l-3.99-7.05c-0.23,0.02-0.61,0.03-1.14,0.03
		h-6.29l-1.39,7.02h-2.34l4.43-22.14h7.97c2.51,0,4.45,0.55,5.84,1.65c1.38,1.1,2.07,2.64,2.07,4.62
		C624.64,272.88,624.05,274.73,622.86,276.18z M620.26,275.78c1.36-1.12,2.04-2.76,2.04-4.93c0-1.46-0.5-2.56-1.49-3.32
		s-2.4-1.14-4.24-1.14h-5.88l-2.25,11.07h5.98C616.96,277.46,618.9,276.9,620.26,275.78z"/>
	<path class="st1" d="M652.13,267.75c-1.69,0.99-2.99,2.33-3.91,4.02c-0.92,1.69-1.38,3.55-1.38,5.6c0,2.21,0.71,3.97,2.13,5.28
		s3.47,1.96,6.15,1.96c2.13,0,4.02-0.58,5.66-1.74l1.49-7.43h2.25l-1.71,8.51c-1.03,0.86-2.24,1.54-3.62,2.02
		c-1.38,0.49-2.82,0.73-4.32,0.73c-2.13,0-3.97-0.38-5.54-1.14c-1.56-0.76-2.75-1.83-3.57-3.23s-1.23-3-1.23-4.84
		c0-2.45,0.55-4.68,1.66-6.71s2.68-3.63,4.73-4.82c2.04-1.19,4.42-1.79,7.12-1.79c1.85,0,3.48,0.28,4.89,0.84
		c1.4,0.56,2.51,1.36,3.34,2.39l-1.64,1.42c-0.76-0.89-1.69-1.53-2.78-1.95s-2.39-0.62-3.89-0.62
		C655.75,266.26,653.81,266.76,652.13,267.75z"/>
	<path class="st1" d="M679.74,266.39l-1.58,7.88h11.48l-0.38,1.99h-11.48l-1.64,8.22h13.32l-0.41,2.02h-15.62l4.43-22.14h15.18
		l-0.41,2.02H679.74z M688.47,258.64h3.07l-5.53,3.92h-2.34L688.47,258.64z"/>
	<path class="st1" d="M721.96,264.36l-4.43,22.14h-1.9l-10.59-18.34l-3.67,18.34h-2.31l4.43-22.14h1.9l10.6,18.34l3.67-18.34H721.96
		z"/>
	<path class="st1" d="M735.59,266.39l-1.58,7.88h11.48l-0.38,1.99h-11.48l-1.64,8.22h13.32l-0.41,2.02h-15.62l4.43-22.14h15.18
		l-0.41,2.02H735.59z M744.32,258.64h3.07l-5.53,3.92h-2.34L744.32,258.64z"/>
	<path class="st1" d="M773.43,276.18c-1.19,1.44-2.86,2.42-5.01,2.93l4.17,7.4h-2.53l-3.99-7.05c-0.23,0.02-0.61,0.03-1.14,0.03
		h-6.29l-1.39,7.02h-2.34l4.43-22.14h7.97c2.51,0,4.45,0.55,5.84,1.65c1.38,1.1,2.07,2.64,2.07,4.62
		C775.22,272.88,774.62,274.73,773.43,276.18z M770.84,275.78c1.36-1.12,2.04-2.76,2.04-4.93c0-1.46-0.5-2.56-1.49-3.32
		s-2.4-1.14-4.24-1.14h-5.88l-2.25,11.07H765C767.53,277.46,769.48,276.9,770.84,275.78z"/>
	<path class="st1" d="M797.45,280.59h-12.37l-3.83,5.91h-2.53l14.55-22.14h2.31l5.69,22.14h-2.34L797.45,280.59z M797.01,278.69
		l-3-11.96l-7.72,11.96H797.01z"/>
	<path class="st1" d="M813.87,264.36h2.31l-4.02,20.12h12.4l-0.41,2.02h-14.71L813.87,264.36z"/>
</g>
<polygon class="st2" points="233.49,170.15 240.08,143.06 145.45,143.06 138.79,170.15 171.11,170.15 "/>
<polygon class="st2" points="132.86,194.27 114.8,267.82 147.05,267.82 158.46,221.48 210.15,221.48 216.74,194.39 "/>
<g>
	<polygon class="st1" points="1096.74,135.33 1066.71,258.12 1073,258.12 1103.02,135.33 	"/>
</g>
</svg>
